<mxfile host="app.diagrams.net" modified="2022-03-08T21:26:14.341Z" agent="5.0 (Windows NT 10.0; Win64; x64) AppleWebKit/537.36 (KHTML, like Gecko) Chrome/99.0.4844.51 Safari/537.36" etag="Ur0eryyeC4DuWnLwMbKH" version="16.6.8" type="github">
  <diagram id="wcthhbRkcaCc9vDPoBOK" name="Page-1">
    <mxGraphModel dx="1240" dy="643" grid="1" gridSize="10" guides="1" tooltips="1" connect="1" arrows="1" fold="1" page="1" pageScale="1" pageWidth="850" pageHeight="1100" math="0" shadow="0">
      <root>
        <mxCell id="0" />
        <mxCell id="1" parent="0" />
        <mxCell id="ioiu4KagPV8kMkHG_SKO-1" value="" style="whiteSpace=wrap;html=1;aspect=fixed;" parent="1" vertex="1">
          <mxGeometry x="456" y="100" width="980" height="980" as="geometry" />
        </mxCell>
        <mxCell id="ioiu4KagPV8kMkHG_SKO-3" value="Guest" style="shape=umlActor;verticalLabelPosition=bottom;verticalAlign=top;html=1;fontSize=15;" parent="1" vertex="1">
          <mxGeometry x="290" y="290" width="30" height="60" as="geometry" />
        </mxCell>
        <mxCell id="ioiu4KagPV8kMkHG_SKO-4" value="IPAMS" style="text;align=center;fontStyle=1;verticalAlign=middle;spacingLeft=3;spacingRight=3;strokeColor=none;rotatable=0;points=[[0,0.5],[1,0.5]];portConstraint=eastwest;fontSize=15;" parent="1" vertex="1">
          <mxGeometry x="900" y="100" width="80" height="26" as="geometry" />
        </mxCell>
        <mxCell id="ioiu4KagPV8kMkHG_SKO-6" value="Registered Guest" style="shape=umlActor;verticalLabelPosition=bottom;verticalAlign=top;html=1;fontSize=15;" parent="1" vertex="1">
          <mxGeometry x="290" y="525" width="30" height="60" as="geometry" />
        </mxCell>
        <mxCell id="ioiu4KagPV8kMkHG_SKO-7" value="Student" style="shape=umlActor;verticalLabelPosition=bottom;verticalAlign=top;html=1;fontSize=15;" parent="1" vertex="1">
          <mxGeometry x="290" y="780" width="30" height="60" as="geometry" />
        </mxCell>
        <mxCell id="ioiu4KagPV8kMkHG_SKO-8" value="KTTO" style="shape=umlActor;verticalLabelPosition=bottom;verticalAlign=top;html=1;fontSize=15;" parent="1" vertex="1">
          <mxGeometry x="1510" y="400" width="30" height="60" as="geometry" />
        </mxCell>
        <mxCell id="ioiu4KagPV8kMkHG_SKO-12" value="RDCO" style="shape=umlActor;verticalLabelPosition=bottom;verticalAlign=top;html=1;fontSize=15;" parent="1" vertex="1">
          <mxGeometry x="1510" y="625" width="30" height="60" as="geometry" />
        </mxCell>
        <mxCell id="ioiu4KagPV8kMkHG_SKO-18" value="Adviser" style="shape=umlActor;verticalLabelPosition=bottom;verticalAlign=top;html=1;fontSize=15;" parent="1" vertex="1">
          <mxGeometry x="1510" y="160" width="30" height="60" as="geometry" />
        </mxCell>
        <mxCell id="JJTdI-dGNaC50hc8QYsU-1" value="" style="endArrow=none;html=1;rounded=0;" edge="1" parent="1">
          <mxGeometry width="50" height="50" relative="1" as="geometry">
            <mxPoint x="340" y="320" as="sourcePoint" />
            <mxPoint x="580" y="320" as="targetPoint" />
          </mxGeometry>
        </mxCell>
        <mxCell id="JJTdI-dGNaC50hc8QYsU-2" value="&lt;font style=&quot;font-size: 15px&quot;&gt;View Approved Records&lt;/font&gt;" style="ellipse;whiteSpace=wrap;html=1;" vertex="1" parent="1">
          <mxGeometry x="580" y="285" width="140" height="70" as="geometry" />
        </mxCell>
        <mxCell id="JJTdI-dGNaC50hc8QYsU-7" value="" style="endArrow=none;html=1;rounded=0;entryX=0;entryY=0.5;entryDx=0;entryDy=0;" edge="1" parent="1" target="JJTdI-dGNaC50hc8QYsU-8">
          <mxGeometry width="50" height="50" relative="1" as="geometry">
            <mxPoint x="340" y="810" as="sourcePoint" />
            <mxPoint x="580" y="810" as="targetPoint" />
          </mxGeometry>
        </mxCell>
        <mxCell id="JJTdI-dGNaC50hc8QYsU-8" value="&lt;font style=&quot;font-size: 15px&quot;&gt;Add Record&lt;/font&gt;" style="ellipse;whiteSpace=wrap;html=1;" vertex="1" parent="1">
          <mxGeometry x="640" y="775" width="140" height="70" as="geometry" />
        </mxCell>
        <mxCell id="JJTdI-dGNaC50hc8QYsU-27" value="" style="triangle;whiteSpace=wrap;html=1;fontSize=15;rotation=-90;" vertex="1" parent="1">
          <mxGeometry x="290" y="400" width="30" height="20" as="geometry" />
        </mxCell>
        <mxCell id="JJTdI-dGNaC50hc8QYsU-28" value="" style="endArrow=none;html=1;rounded=0;labelBorderColor=default;fontSize=15;entryX=0;entryY=0.5;entryDx=0;entryDy=0;" edge="1" parent="1" target="JJTdI-dGNaC50hc8QYsU-27">
          <mxGeometry width="50" height="50" relative="1" as="geometry">
            <mxPoint x="305" y="490" as="sourcePoint" />
            <mxPoint x="360" y="450" as="targetPoint" />
          </mxGeometry>
        </mxCell>
        <mxCell id="JJTdI-dGNaC50hc8QYsU-56" value="&lt;font style=&quot;font-size: 15px&quot;&gt;Approved/Decline Record&lt;/font&gt;" style="ellipse;whiteSpace=wrap;html=1;" vertex="1" parent="1">
          <mxGeometry x="1110" y="126" width="140" height="70" as="geometry" />
        </mxCell>
        <mxCell id="JJTdI-dGNaC50hc8QYsU-57" value="" style="endArrow=none;html=1;rounded=0;labelBorderColor=default;fontSize=15;exitX=1;exitY=0.5;exitDx=0;exitDy=0;" edge="1" parent="1" source="JJTdI-dGNaC50hc8QYsU-56">
          <mxGeometry width="50" height="50" relative="1" as="geometry">
            <mxPoint x="1290" y="240" as="sourcePoint" />
            <mxPoint x="1500" y="190" as="targetPoint" />
          </mxGeometry>
        </mxCell>
        <mxCell id="JJTdI-dGNaC50hc8QYsU-59" value="&lt;font style=&quot;font-size: 15px&quot;&gt;Download Abstract File&lt;/font&gt;" style="ellipse;whiteSpace=wrap;html=1;" vertex="1" parent="1">
          <mxGeometry x="740" y="215" width="140" height="70" as="geometry" />
        </mxCell>
        <mxCell id="JJTdI-dGNaC50hc8QYsU-60" value="&amp;lt;&amp;lt;extend&amp;gt;&amp;gt;" style="html=1;verticalAlign=bottom;labelBackgroundColor=none;endArrow=open;endFill=0;dashed=1;rounded=0;labelBorderColor=default;fontSize=15;exitX=0;exitY=0.5;exitDx=0;exitDy=0;entryX=1;entryY=0.5;entryDx=0;entryDy=0;" edge="1" parent="1" source="JJTdI-dGNaC50hc8QYsU-56" target="JJTdI-dGNaC50hc8QYsU-59">
          <mxGeometry width="160" relative="1" as="geometry">
            <mxPoint x="970" y="400" as="sourcePoint" />
            <mxPoint x="1130" y="400" as="targetPoint" />
          </mxGeometry>
        </mxCell>
        <mxCell id="JJTdI-dGNaC50hc8QYsU-61" value="&lt;span style=&quot;font-size: 15px&quot;&gt;Check/Uncheck Record Tags&lt;/span&gt;" style="ellipse;whiteSpace=wrap;html=1;" vertex="1" parent="1">
          <mxGeometry x="1190" y="196" width="140" height="70" as="geometry" />
        </mxCell>
        <mxCell id="JJTdI-dGNaC50hc8QYsU-62" value="" style="endArrow=none;html=1;rounded=0;labelBorderColor=default;fontSize=15;exitX=1;exitY=0;exitDx=0;exitDy=0;" edge="1" parent="1" source="JJTdI-dGNaC50hc8QYsU-61">
          <mxGeometry width="50" height="50" relative="1" as="geometry">
            <mxPoint x="1310" y="345" as="sourcePoint" />
            <mxPoint x="1500" y="200" as="targetPoint" />
          </mxGeometry>
        </mxCell>
        <mxCell id="JJTdI-dGNaC50hc8QYsU-65" value="&lt;font style=&quot;font-size: 15px&quot;&gt;Edit Record&lt;/font&gt;" style="ellipse;whiteSpace=wrap;html=1;" vertex="1" parent="1">
          <mxGeometry x="830" y="910" width="140" height="70" as="geometry" />
        </mxCell>
        <mxCell id="JJTdI-dGNaC50hc8QYsU-66" value="&amp;lt;&amp;lt;extend&amp;gt;&amp;gt;" style="html=1;verticalAlign=bottom;labelBackgroundColor=none;endArrow=open;endFill=0;dashed=1;rounded=0;labelBorderColor=default;fontSize=15;exitX=0.5;exitY=1;exitDx=0;exitDy=0;entryX=0.5;entryY=0;entryDx=0;entryDy=0;" edge="1" parent="1" target="JJTdI-dGNaC50hc8QYsU-65" source="JJTdI-dGNaC50hc8QYsU-8">
          <mxGeometry width="160" relative="1" as="geometry">
            <mxPoint x="929.9948993037415" y="845.0022942185756" as="sourcePoint" />
            <mxPoint x="990" y="1025.51" as="targetPoint" />
          </mxGeometry>
        </mxCell>
        <mxCell id="JJTdI-dGNaC50hc8QYsU-67" value="{ if not yet approved by adviser }" style="text;html=1;strokeColor=none;fillColor=none;align=center;verticalAlign=middle;whiteSpace=wrap;rounded=0;fontSize=15;" vertex="1" parent="1">
          <mxGeometry x="710" y="870" width="120" height="90" as="geometry" />
        </mxCell>
        <mxCell id="JJTdI-dGNaC50hc8QYsU-70" value="&amp;lt;&amp;lt;extend&amp;gt;&amp;gt;" style="html=1;verticalAlign=bottom;labelBackgroundColor=none;endArrow=open;endFill=0;dashed=1;rounded=0;labelBorderColor=default;fontSize=15;exitX=0.5;exitY=0;exitDx=0;exitDy=0;" edge="1" parent="1" source="JJTdI-dGNaC50hc8QYsU-8" target="JJTdI-dGNaC50hc8QYsU-59">
          <mxGeometry width="160" relative="1" as="geometry">
            <mxPoint x="620" y="660" as="sourcePoint" />
            <mxPoint x="780" y="660" as="targetPoint" />
          </mxGeometry>
        </mxCell>
        <mxCell id="JJTdI-dGNaC50hc8QYsU-71" value="{ if approved by the RDCO }" style="text;html=1;strokeColor=none;fillColor=none;align=center;verticalAlign=middle;whiteSpace=wrap;rounded=0;fontSize=15;" vertex="1" parent="1">
          <mxGeometry x="730" y="620" width="120" height="90" as="geometry" />
        </mxCell>
        <mxCell id="JJTdI-dGNaC50hc8QYsU-72" value="&amp;lt;&amp;lt;include&amp;gt;&amp;gt;" style="html=1;verticalAlign=bottom;labelBackgroundColor=none;endArrow=open;endFill=0;dashed=1;rounded=0;labelBorderColor=default;fontSize=15;entryX=0.5;entryY=0;entryDx=0;entryDy=0;exitX=0.5;exitY=1;exitDx=0;exitDy=0;" edge="1" parent="1" source="JJTdI-dGNaC50hc8QYsU-56" target="JJTdI-dGNaC50hc8QYsU-73">
          <mxGeometry width="160" relative="1" as="geometry">
            <mxPoint x="800" y="290" as="sourcePoint" />
            <mxPoint x="960" y="290" as="targetPoint" />
          </mxGeometry>
        </mxCell>
        <mxCell id="JJTdI-dGNaC50hc8QYsU-73" value="&lt;font style=&quot;font-size: 15px&quot;&gt;Review Submitted Record&lt;/font&gt;" style="ellipse;whiteSpace=wrap;html=1;" vertex="1" parent="1">
          <mxGeometry x="890" y="280" width="140" height="70" as="geometry" />
        </mxCell>
        <mxCell id="JJTdI-dGNaC50hc8QYsU-76" value="View Dashboard" style="ellipse;whiteSpace=wrap;html=1;fontSize=15;" vertex="1" parent="1">
          <mxGeometry x="1135" y="310" width="140" height="70" as="geometry" />
        </mxCell>
        <mxCell id="JJTdI-dGNaC50hc8QYsU-79" value="" style="endArrow=none;html=1;rounded=0;labelBorderColor=default;fontSize=15;exitX=0.929;exitY=0.714;exitDx=0;exitDy=0;exitPerimeter=0;" edge="1" parent="1" source="JJTdI-dGNaC50hc8QYsU-76">
          <mxGeometry width="50" height="50" relative="1" as="geometry">
            <mxPoint x="1189.9951006962585" y="525.5077057814243" as="sourcePoint" />
            <mxPoint x="1500" y="410" as="targetPoint" />
          </mxGeometry>
        </mxCell>
        <mxCell id="JJTdI-dGNaC50hc8QYsU-80" value="" style="endArrow=none;html=1;rounded=0;labelBorderColor=default;fontSize=15;exitX=1;exitY=0.5;exitDx=0;exitDy=0;" edge="1" parent="1" source="JJTdI-dGNaC50hc8QYsU-81">
          <mxGeometry width="50" height="50" relative="1" as="geometry">
            <mxPoint x="1250" y="455" as="sourcePoint" />
            <mxPoint x="1500" y="420" as="targetPoint" />
          </mxGeometry>
        </mxCell>
        <mxCell id="JJTdI-dGNaC50hc8QYsU-81" value="&lt;font style=&quot;font-size: 15px&quot;&gt;Remove Record&lt;/font&gt;" style="ellipse;whiteSpace=wrap;html=1;" vertex="1" parent="1">
          <mxGeometry x="1010" y="360" width="140" height="70" as="geometry" />
        </mxCell>
        <mxCell id="JJTdI-dGNaC50hc8QYsU-85" value="" style="endArrow=none;html=1;rounded=0;labelBorderColor=default;fontSize=15;exitX=1;exitY=0.5;exitDx=0;exitDy=0;" edge="1" parent="1" source="JJTdI-dGNaC50hc8QYsU-86">
          <mxGeometry width="50" height="50" relative="1" as="geometry">
            <mxPoint x="1160" y="535" as="sourcePoint" />
            <mxPoint x="1500" y="430" as="targetPoint" />
          </mxGeometry>
        </mxCell>
        <mxCell id="JJTdI-dGNaC50hc8QYsU-86" value="&lt;font style=&quot;font-size: 15px&quot;&gt;Change Document Status&lt;/font&gt;" style="ellipse;whiteSpace=wrap;html=1;" vertex="1" parent="1">
          <mxGeometry x="940" y="440" width="140" height="70" as="geometry" />
        </mxCell>
        <mxCell id="JJTdI-dGNaC50hc8QYsU-87" value="&lt;span style=&quot;font-size: 15px&quot;&gt;Manage Accounts&lt;/span&gt;" style="ellipse;whiteSpace=wrap;html=1;" vertex="1" parent="1">
          <mxGeometry x="1100" y="480" width="140" height="70" as="geometry" />
        </mxCell>
        <mxCell id="JJTdI-dGNaC50hc8QYsU-88" value="" style="endArrow=none;html=1;rounded=0;labelBorderColor=default;fontSize=15;exitX=1;exitY=0;exitDx=0;exitDy=0;" edge="1" parent="1" source="JJTdI-dGNaC50hc8QYsU-87">
          <mxGeometry width="50" height="50" relative="1" as="geometry">
            <mxPoint x="1100" y="487.5" as="sourcePoint" />
            <mxPoint x="1500" y="442.5" as="targetPoint" />
          </mxGeometry>
        </mxCell>
        <mxCell id="JJTdI-dGNaC50hc8QYsU-90" value="&amp;lt;&amp;lt;extend&amp;gt;&amp;gt;" style="html=1;verticalAlign=bottom;labelBackgroundColor=none;endArrow=open;endFill=0;dashed=1;rounded=0;labelBorderColor=default;fontSize=15;entryX=1;entryY=0;entryDx=0;entryDy=0;" edge="1" parent="1" source="JJTdI-dGNaC50hc8QYsU-87" target="JJTdI-dGNaC50hc8QYsU-91">
          <mxGeometry width="160" relative="1" as="geometry">
            <mxPoint x="1210.0048993037415" y="559.4922942185756" as="sourcePoint" />
            <mxPoint x="1000.01" y="669.9999999999999" as="targetPoint" />
          </mxGeometry>
        </mxCell>
        <mxCell id="JJTdI-dGNaC50hc8QYsU-91" value="&lt;font style=&quot;font-size: 15px&quot;&gt;Change User Role&lt;/font&gt;" style="ellipse;whiteSpace=wrap;html=1;" vertex="1" parent="1">
          <mxGeometry x="930" y="560" width="140" height="70" as="geometry" />
        </mxCell>
        <mxCell id="JJTdI-dGNaC50hc8QYsU-94" value="&amp;lt;&amp;lt;extend&amp;gt;&amp;gt;" style="html=1;verticalAlign=bottom;labelBackgroundColor=none;endArrow=open;endFill=0;dashed=1;rounded=0;labelBorderColor=default;fontSize=15;entryX=0.5;entryY=0;entryDx=0;entryDy=0;exitX=0.5;exitY=1;exitDx=0;exitDy=0;" edge="1" parent="1" target="JJTdI-dGNaC50hc8QYsU-95" source="JJTdI-dGNaC50hc8QYsU-87">
          <mxGeometry width="160" relative="1" as="geometry">
            <mxPoint x="1320.834314152194" y="593.91866785241" as="sourcePoint" />
            <mxPoint x="1200.01" y="711.0899999999999" as="targetPoint" />
          </mxGeometry>
        </mxCell>
        <mxCell id="JJTdI-dGNaC50hc8QYsU-95" value="&lt;font style=&quot;font-size: 15px&quot;&gt;Remove Account&lt;/font&gt;" style="ellipse;whiteSpace=wrap;html=1;" vertex="1" parent="1">
          <mxGeometry x="1050" y="625" width="140" height="70" as="geometry" />
        </mxCell>
        <mxCell id="JJTdI-dGNaC50hc8QYsU-97" value="&lt;span style=&quot;font-size: 15px&quot;&gt;View Logs&lt;/span&gt;" style="ellipse;whiteSpace=wrap;html=1;" vertex="1" parent="1">
          <mxGeometry x="1250" y="517.5" width="140" height="70" as="geometry" />
        </mxCell>
        <mxCell id="JJTdI-dGNaC50hc8QYsU-98" value="" style="endArrow=none;html=1;rounded=0;labelBorderColor=default;fontSize=15;exitX=0.5;exitY=0;exitDx=0;exitDy=0;" edge="1" parent="1" source="JJTdI-dGNaC50hc8QYsU-97">
          <mxGeometry width="50" height="50" relative="1" as="geometry">
            <mxPoint x="1250" y="525" as="sourcePoint" />
            <mxPoint x="1500" y="450" as="targetPoint" />
          </mxGeometry>
        </mxCell>
        <mxCell id="JJTdI-dGNaC50hc8QYsU-99" value="" style="triangle;whiteSpace=wrap;html=1;fontSize=15;rotation=-90;" vertex="1" parent="1">
          <mxGeometry x="290" y="650" width="30" height="20" as="geometry" />
        </mxCell>
        <mxCell id="JJTdI-dGNaC50hc8QYsU-100" value="" style="endArrow=none;html=1;rounded=0;labelBorderColor=default;fontSize=15;entryX=0;entryY=0.5;entryDx=0;entryDy=0;" edge="1" parent="1" target="JJTdI-dGNaC50hc8QYsU-99">
          <mxGeometry width="50" height="50" relative="1" as="geometry">
            <mxPoint x="305" y="740" as="sourcePoint" />
            <mxPoint x="360" y="700" as="targetPoint" />
          </mxGeometry>
        </mxCell>
        <mxCell id="JJTdI-dGNaC50hc8QYsU-101" value="" style="triangle;whiteSpace=wrap;html=1;fontSize=15;rotation=-90;" vertex="1" parent="1">
          <mxGeometry x="1510" y="275" width="30" height="20" as="geometry" />
        </mxCell>
        <mxCell id="JJTdI-dGNaC50hc8QYsU-102" value="" style="endArrow=none;html=1;rounded=0;labelBorderColor=default;fontSize=15;entryX=0;entryY=0.5;entryDx=0;entryDy=0;" edge="1" parent="1" target="JJTdI-dGNaC50hc8QYsU-101">
          <mxGeometry width="50" height="50" relative="1" as="geometry">
            <mxPoint x="1525" y="365" as="sourcePoint" />
            <mxPoint x="1580" y="325" as="targetPoint" />
          </mxGeometry>
        </mxCell>
        <mxCell id="JJTdI-dGNaC50hc8QYsU-103" value="" style="triangle;whiteSpace=wrap;html=1;fontSize=15;rotation=-90;" vertex="1" parent="1">
          <mxGeometry x="1510" y="510" width="30" height="20" as="geometry" />
        </mxCell>
        <mxCell id="JJTdI-dGNaC50hc8QYsU-104" value="" style="endArrow=none;html=1;rounded=0;labelBorderColor=default;fontSize=15;entryX=0;entryY=0.5;entryDx=0;entryDy=0;" edge="1" parent="1" target="JJTdI-dGNaC50hc8QYsU-103">
          <mxGeometry width="50" height="50" relative="1" as="geometry">
            <mxPoint x="1525" y="599.9999999999999" as="sourcePoint" />
            <mxPoint x="1580" y="560" as="targetPoint" />
          </mxGeometry>
        </mxCell>
        <mxCell id="JJTdI-dGNaC50hc8QYsU-111" value="TBI" style="shape=umlActor;verticalLabelPosition=bottom;verticalAlign=top;html=1;fontSize=15;" vertex="1" parent="1">
          <mxGeometry x="1700" y="400" width="30" height="60" as="geometry" />
        </mxCell>
        <mxCell id="JJTdI-dGNaC50hc8QYsU-113" value="" style="endArrow=none;html=1;rounded=0;labelBorderColor=default;fontSize=15;exitX=0;exitY=0.5;exitDx=0;exitDy=0;" edge="1" parent="1" source="JJTdI-dGNaC50hc8QYsU-119">
          <mxGeometry width="50" height="50" relative="1" as="geometry">
            <mxPoint x="1610" y="429.2899999999999" as="sourcePoint" />
            <mxPoint x="1675" y="429.29" as="targetPoint" />
          </mxGeometry>
        </mxCell>
        <mxCell id="JJTdI-dGNaC50hc8QYsU-119" value="" style="triangle;whiteSpace=wrap;html=1;fontSize=15;rotation=-180;" vertex="1" parent="1">
          <mxGeometry x="1560" y="420" width="30" height="20" as="geometry" />
        </mxCell>
      </root>
    </mxGraphModel>
  </diagram>
</mxfile>
